<?xml version="1.0" encoding="utf-8"?>
<!-- Generator: Adobe Illustrator 18.0.0, SVG Export Plug-In . SVG Version: 6.00 Build 0)  -->
<!DOCTYPE svg PUBLIC "-//W3C//DTD SVG 1.1//EN" "http://www.w3.org/Graphics/SVG/1.1/DTD/svg11.dtd">
<svg version="1.1" id="Layer_1" xmlns="http://www.w3.org/2000/svg" xmlns:xlink="http://www.w3.org/1999/xlink" x="0px" y="0px"
	 viewBox="56.7 0 141.7 141.7" enable-background="new 56.7 0 141.7 141.7" xml:space="preserve">
<path id="Instagram" fill="#FFFFFF" d="M127.6,0C108.4,0,106,0,98.3,0.3S85.6,1.8,81.2,3.5c-4.7,2.1-8.6,4.4-12.7,8.3
	c-3.8,4.1-6.2,8-8,12.7c-1.8,4.4-3,9.7-3.2,17.1c-0.6,7.7-0.6,10-0.6,29.2s0,21.6,0.3,29.2c0.3,7.7,1.5,12.7,3.2,17.1
	c2.1,4.7,4.4,8.6,8.3,12.7c3.8,3.8,8,6.5,12.7,8.3c4.4,1.8,9.7,3,17.1,3.2c7.7,0.3,10,0.3,29.2,0.3s21.6,0,29.2-0.3
	c7.7-0.3,12.7-1.5,17.1-3.2c4.7-1.8,8.6-4.1,12.7-8.3c3.8-3.8,6.5-8,8.3-12.7c1.8-4.4,3-9.7,3.2-17.1c0.3-7.7,0.3-10,0.3-29.2
	s0-21.6-0.3-29.2c-0.3-7.7-1.5-12.7-3.2-17.1c-2.1-4.7-4.4-8.6-8.3-12.7c-3.8-3.8-8-6.5-12.7-8.3c-4.4-1.8-9.7-3-17.1-3.2
	C149.1,0,146.8,0,127.6,0z M127.6,12.7c18.9,0,21.3,0,28.6,0.3c6.8,0.6,10.6,1.8,13.3,2.7c3.2,1.2,5.6,3,8.3,5.3
	c2.4,2.4,4.1,4.7,5.3,8.3c0.9,2.4,2.1,6.2,2.4,13.3c0.3,7.4,0.3,9.7,0.3,28.6s0,21.3-0.3,28.6c-0.3,6.8-1.5,10.6-2.4,13.3
	c-1.2,3.2-3,5.6-5.3,8.3c-2.4,2.4-4.7,4.1-8.3,5.3c-2.4,0.9-6.2,2.1-13.3,2.4c-7.4,0.3-9.7,0.3-28.6,0.3s-21.3,0-28.6-0.3
	c-6.8-0.3-10.6-1.5-13.3-2.4c-3.2-1.2-5.6-3-8.3-5.3c-2.4-2.4-4.1-4.7-5.3-8.3c-0.6-3-1.8-6.8-2.1-13.6c-0.3-7.4-0.3-9.7-0.3-28.6
	s0-21.3,0.3-28.6c0.3-6.8,1.5-10.6,2.4-13.3c1.2-3.2,3-5.6,5.3-8.3c2.4-2.4,4.7-4.1,8.3-5.3c2.4-0.6,6.2-1.8,13-2.1
	C106.3,12.7,108.7,12.7,127.6,12.7z M127.6,34.5c-20.1,0-36.3,16.2-36.3,36.3s16.2,36.3,36.3,36.3s36.3-16.2,36.3-36.3
	S147.6,34.5,127.6,34.5z M127.6,94.5c-13,0-23.6-10.6-23.6-23.6s10.6-23.6,23.6-23.6s23.6,10.6,23.6,23.6S140.6,94.5,127.6,94.5z
	 M173.9,33.1c0,4.7-3.8,8.6-8.6,8.6s-8.6-3.8-8.6-8.6s3.8-8.6,8.6-8.6C170.1,24.5,173.9,28.3,173.9,33.1z"/>
</svg>
