<?xml version="1.0" encoding="utf-8"?>
<!-- Generator: Adobe Illustrator 18.0.0, SVG Export Plug-In . SVG Version: 6.00 Build 0)  -->
<!DOCTYPE svg PUBLIC "-//W3C//DTD SVG 1.1//EN" "http://www.w3.org/Graphics/SVG/1.1/DTD/svg11.dtd">
<svg version="1.1" id="Social_Icons" xmlns="http://www.w3.org/2000/svg" xmlns:xlink="http://www.w3.org/1999/xlink" x="0px"
	 y="0px" viewBox="56.7 0 141.7 141.7" enable-background="new 56.7 0 141.7 141.7" xml:space="preserve">
<g id="_x37__stroke">
	<g id="Instagram_1_">
		<rect x="56.7" fill="none" width="141.7" height="141.7"/>
		
			<radialGradient id="Instagram_2_" cx="19.1111" cy="13.2856" r="163.5519" gradientTransform="matrix(1.1073 0 0 -1.1073 56.695 156.9328)" gradientUnits="userSpaceOnUse">
			<stop  offset="0" style="stop-color:#FFB140"/>
			<stop  offset="0.2559" style="stop-color:#FF5445"/>
			<stop  offset="0.599" style="stop-color:#FC2B82"/>
			<stop  offset="1" style="stop-color:#8E40B7"/>
		</radialGradient>
		<path id="Instagram" fill="url(#Instagram_2_)" d="M173.9,33c0,4.7-3.8,8.5-8.5,8.5s-8.5-3.8-8.5-8.5s3.8-8.5,8.5-8.5
			C170.1,24.5,173.9,28.3,173.9,33z M127.6,94.5c-13,0-23.6-10.6-23.6-23.6s10.6-23.6,23.6-23.6s23.6,10.6,23.6,23.6
			S140.6,94.5,127.6,94.5z M127.6,34.5c-20.1,0-36.4,16.3-36.4,36.4s16.3,36.4,36.4,36.4S164,91,164,70.9
			C164,50.8,147.7,34.5,127.6,34.5z M127.6,12.8c18.9,0,21.2,0.1,28.6,0.4c6.9,0.3,10.7,1.5,13.2,2.4c3.3,1.3,5.7,2.8,8.1,5.3
			c2.5,2.5,4,4.8,5.3,8.1c1,2.5,2.1,6.2,2.4,13.2c0.3,7.5,0.4,9.7,0.4,28.6s-0.1,21.2-0.4,28.6c-0.3,6.9-1.5,10.7-2.4,13.2
			c-1.3,3.3-2.8,5.7-5.3,8.1c-2.5,2.5-4.8,4-8.1,5.3c-2.5,1-6.2,2.1-13.2,2.4c-7.5,0.3-9.7,0.4-28.6,0.4c-18.9,0-21.2-0.1-28.6-0.4
			c-6.9-0.3-10.7-1.5-13.2-2.4c-3.3-1.3-5.7-2.8-8.1-5.3c-2.5-2.5-4-4.8-5.3-8.1c-1-2.5-2.1-6.2-2.4-13.2c-0.3-7.5-0.4-9.7-0.4-28.6
			c0-18.9,0.1-21.2,0.4-28.6c0.3-6.9,1.5-10.7,2.4-13.2c1.3-3.3,2.8-5.7,5.3-8.1c2.5-2.5,4.8-4,8.1-5.3c2.5-1,6.2-2.1,13.2-2.4
			C106.4,12.8,108.6,12.8,127.6,12.8z M127.6,0c-19.2,0-21.7,0.1-29.2,0.4C90.8,0.8,85.6,2,81.1,3.7c-4.7,1.8-8.6,4.2-12.6,8.2
			s-6.4,7.9-8.2,12.6c-1.8,4.5-2.9,9.7-3.3,17.2c-0.3,7.6-0.4,10-0.4,29.2s0.1,21.7,0.4,29.2c0.3,7.5,1.5,12.7,3.3,17.2
			c1.8,4.7,4.2,8.6,8.2,12.6c3.9,3.9,7.9,6.4,12.6,8.2c4.5,1.8,9.7,2.9,17.2,3.3c7.6,0.3,10,0.4,29.2,0.4s21.7-0.1,29.2-0.4
			c7.5-0.3,12.7-1.5,17.2-3.3c4.7-1.8,8.6-4.2,12.6-8.2c3.9-3.9,6.4-7.9,8.2-12.6c1.8-4.5,2.9-9.7,3.3-17.2c0.3-7.6,0.4-10,0.4-29.2
			s-0.1-21.7-0.4-29.2c-0.3-7.5-1.5-12.7-3.3-17.2c-1.8-4.7-4.2-8.6-8.2-12.6s-7.9-6.4-12.6-8.2c-4.5-1.8-9.7-2.9-17.2-3.3
			C149.2,0.1,146.8,0,127.6,0z"/>
	</g>
</g>
</svg>
