<?xml version="1.0" encoding="utf-8"?>
<!-- Generator: Adobe Illustrator 18.0.0, SVG Export Plug-In . SVG Version: 6.00 Build 0)  -->
<!DOCTYPE svg PUBLIC "-//W3C//DTD SVG 1.1//EN" "http://www.w3.org/Graphics/SVG/1.1/DTD/svg11.dtd">
<svg version="1.1" id="Layer_1" xmlns="http://www.w3.org/2000/svg" xmlns:xlink="http://www.w3.org/1999/xlink" x="0px" y="0px"
	 viewBox="102 28.3 51 85" enable-background="new 102 28.3 51 85" xml:space="preserve">
<g id="OK_1_">
	<path id="K_1_" fill="#FFFFFF" d="M147.4,70.9c-2.8,0-8.5,5.7-19.8,5.7s-17-5.7-19.8-5.7c-3.1,0-5.7,2.6-5.7,5.7
		c0,2.8,1.7,4.3,2.8,4.8c3.4,2,14.2,6.5,14.2,6.5l-12.2,15.3c0,0-2.3,2.6-2.3,4.5c0,3.1,2.6,5.7,5.7,5.7c2.8,0,4.3-2,4.3-2l13-15
		l12.8,15c0,0,1.4,2,4.3,2c3.1,0,5.7-2.6,5.7-5.7c0-1.7-2.3-4.5-2.3-4.5l-11.9-15.3c0,0,10.8-4.5,14.2-6.5c1.1-0.9,2.8-2,2.8-4.8
		C153.1,73.4,150.5,70.9,147.4,70.9z"/>
	<path id="O_1_" fill="#FFFFFF" d="M127.6,28.3c-11.1,0-19.8,8.8-19.8,19.8S116.5,68,127.6,68s19.8-8.8,19.8-19.8
		S138.6,28.3,127.6,28.3z M127.6,58.1c-5.4,0-9.9-4.5-9.9-9.9s4.5-9.9,9.9-9.9c5.4,0,9.9,4.5,9.9,9.9S132.9,58.1,127.6,58.1z"/>
</g>
</svg>
