<?xml version="1.0" encoding="utf-8"?>
<!-- Generator: Adobe Illustrator 18.0.0, SVG Export Plug-In . SVG Version: 6.00 Build 0)  -->
<!DOCTYPE svg PUBLIC "-//W3C//DTD SVG 1.1//EN" "http://www.w3.org/Graphics/SVG/1.1/DTD/svg11.dtd">
<svg version="1.1" id="Layer_1" xmlns="http://www.w3.org/2000/svg" xmlns:xlink="http://www.w3.org/1999/xlink" x="0px" y="0px"
	 viewBox="88 180 328.3 187.3" enable-background="new 88 180 328.3 187.3" xml:space="preserve">
<path fill="#FFFFFF" d="M248.6,366.5h19.6c0,0,5.9-0.6,8.9-3.9c2.8-3,2.7-8.6,2.7-8.6s-0.4-26.3,11.8-30.2
	c12.1-3.8,27.5,25.4,43.9,36.7c12.4,8.5,21.8,6.7,21.8,6.7l43.8-0.6c0,0,22.9-1.4,12.1-19.4c-0.9-1.5-6.3-13.3-32.6-37.7
	c-27.5-25.5-23.8-21.4,9.3-65.5c20.2-26.9,28.2-43.3,25.7-50.3c-2.4-6.7-17.2-4.9-17.2-4.9l-49.4,0.3c0,0-3.7-0.5-6.4,1.1
	c-2.7,1.6-4.4,5.3-4.4,5.3s-7.8,20.8-18.2,38.5c-22,37.3-30.8,39.3-34.4,37c-8.4-5.4-6.3-21.7-6.3-33.3c0-36.2,5.5-51.2-10.7-55.1
	c-5.4-1.3-9.3-2.2-23-2.3c-17.6-0.2-32.5,0-41,4.2c-5.6,2.7-9.9,8.9-7.3,9.2c3.3,0.4,10.7,2,14.6,7.3c5,6.9,4.9,22.3,4.9,22.3
	s2.9,42.6-6.8,47.9c-6.7,3.6-15.8-3.8-35.4-37.6c-10-17.3-17.6-36.5-17.6-36.5s-1.5-3.6-4.1-5.5c-3.2-2.3-7.6-3.1-7.6-3.1l-46.9,0.3
	c0,0-7,0.2-9.6,3.3c-2.3,2.7-0.2,8.4-0.2,8.4s36.7,85.9,78.3,129.2C205.3,369.1,248.6,366.5,248.6,366.5L248.6,366.5z"/>
</svg>
